#!OML:ASF E:\Steps\Project 1\Capture day 1\Session 2\Subject.ASF
:FULLY-SPECIFIED
:DEGREES
576
root 4.2179 17.9513 16.7224 -155.55 -2.80574 175.261
lowerback -26.1207 -2.82952 -7.39668
upperback 1.01184 -1.66963 -0.212071
thorax 15.3738 -1.42073 3.17455
lowerneck 0.940543 0.0747651 -0.305111
upperneck 25.8578 -3.62228 2.41486
head 7.86341 -2.66503 0.472826
rclavicle -7.76503e-016 -5.61567e-015
rhumerus -45.7066 -17.3632 -75.8954
rradius 32.8786
rwrist -4.12834
rhand -9.03912 -57.0053
rfingers 7.12502
rthumb 16.9088 633.711
lclavicle -7.76503e-016 -5.61567e-015
lhumerus -31.9723 1.32319 80.1097
lradius 25.9249
lwrist -2.66138
lhand -21.9371 -13.8455
lfingers 7.12502
lthumb 4.46947 16.0873
rfemur -25.7655 8.93524 17.1561
rtibia 15.1247
rfoot -20.4853 -3.90265
rtoes -16.838
lfemur -24.7524 -11.3668 -23.2657
ltibia 10.8942
lfoot -6.50513 -2.96124
ltoes -26.5191
577
root 4.22436 17.951 16.7024 -155.457 -2.77498 175.294
lowerback -26.4063 -2.80592 -7.41792
upperback 0.97922 -1.61289 -0.248295
thorax 15.4685 -1.40129 3.1592
lowerneck 0.936438 0.09616 -0.255771
upperneck 25.8929 -3.59936 2.40831
head 7.87509 -2.65179 0.463004
rclavicle 2.96313e-015 -1.18525e-014
rhumerus -45.7439 -17.3462 -75.9858
rradius 32.7674
rwrist -4.01156
rhand -8.74823 -56.7032
rfingers 7.12502
rthumb 17.1888 634.037
lclavicle 2.96313e-015 -1.18525e-014
lhumerus -31.9657 1.26043 80.1915
lradius 25.9442
lwrist -2.76999
lhand -21.9481 -13.5838
lfingers 7.12502
lthumb 4.45891 16.3493
rfemur -25.7856 8.71215 17.2728
rtibia 15.1075
rfoot -20.5629 -3.76782
rtoes -17.9452
lfemur -24.5852 -11.072 -23.229
ltibia 10.459
lfoot -6.35781 -3.04336
ltoes -25.2868
578
root 4.229 17.9524 16.6827 -155.408 -2.75782 175.243
lowerback -26.478 -2.80669 -7.55569
upperback 0.87525 -1.58137 -0.251301
thorax 15.3789 -1.39803 3.24046
lowerneck 1.00239 0.0877638 -0.283487
upperneck 25.8018 -3.57207 2.34494
head 7.83095 -2.64373 0.451023
rclavicle 3.3607e-015 -1.27968e-014
rhumerus -45.8263 -17.2541 -75.9656
rradius 32.6243
rwrist -3.97334
rhand -8.48429 -56.8202
rfingers 7.12502
rthumb 17.4428 633.942
lclavicle 3.3607e-015 -1.27968e-014
lhumerus -32.1081 0.994599 80.4373
lradius 26.0493
lwrist -2.45251
lhand -22.0142 -13.1813
lfingers 7.12502
lthumb 4.3951 16.7531
rfemur -25.7104 8.55888 17.272
rtibia 15.0326
rfoot -20.5655 -3.63887
rtoes -17.6404
lfemur -24.4278 -10.7453 -23.3485
ltibia 10.1907
lfoot -6.22117 -3.30922
ltoes -25.111
579
root 4.23234 17.9521 16.6616 -155.398 -2.75976 175.177
lowerback -26.8604 -2.80645 -7.54601
upperback 0.993341 -1.52733 -0.364107
thorax 15.696 -1.38002 3.12022
lowerneck 0.885705 0.0887948 -0.417424
upperneck 25.7068 -3.5497 2.48572
head 7.82256 -2.62025 0.522697
rclavicle 3.40419e-015 1.06847e-014
rhumerus -45.6224 -17.3952 -76.1108
rradius 32.471
rwrist -3.8075
rhand -8.73192 -57.2907
rfingers 7.12502
rthumb 17.2045 633.451
lclavicle 3.40419e-015 1.06847e-014
lhumerus -31.8823 0.911008 80.4381
lradius 26.0611
lwrist -2.14045
lhand -22.0565 -13.0589
lfingers 7.12502
lthumb 4.35426 16.8763
rfemur -25.5379 8.47127 17.2358
rtibia 14.8504
rfoot -20.5066 -3.48506
rtoes -16.5718
lfemur -24.1934 -10.6063 -23.47
ltibia 9.89896
lfoot -6.13786 -3.39303
ltoes -24.6259
580
root 4.23601 17.9515 16.6407 -155.377 -2.79508 175.118
lowerback -26.9617 -2.85633 -7.65519
upperback 0.925235 -1.56483 -0.3421
thorax 15.6712 -1.40734 3.18571
lowerneck 0.816517 0.154487 -0.740655
upperneck 25.7619 -3.48117 2.67343
head 7.85844 -2.60216 0.64305
rclavicle 9.28076e-015 6.11263e-015
rhumerus -45.7161 -17.1905 -76.0876
rradius 32.4685
rwrist -3.68565
rhand -8.89682 -58.0229
rfingers 7.12502
rthumb 17.0458 632.705
lclavicle 9.28076e-015 6.11263e-015
lhumerus -31.9421 1.28879 80.4821
lradius 26.0467
lwrist -2.30544
lhand -22.149 -13.3846
lfingers 7.12502
lthumb 4.26485 16.5525
rfemur -25.3163 8.27022 17.2372
rtibia 14.5236
rfoot -20.4019 -3.31904
rtoes -16.4184
lfemur -23.98 -10.5978 -23.5394
ltibia 9.6467
lfoot -6.04011 -3.50405
ltoes -23.0969
581
root 4.24219 17.9509 16.6188 -155.393 -2.84191 175.043
lowerback -27.092 -2.85594 -7.76475
upperback 0.921393 -1.51588 -0.387468
thorax 15.7243 -1.39603 3.21007
lowerneck 0.811998 0.151567 -0.824467
upperneck 25.5904 -3.46081 2.81958
head 7.80372 -2.57595 0.710147
rclavicle 4.26145e-015 1.44119e-014
rhumerus -45.7305 -17.1928 -76.1178
rradius 32.3729
rwrist -3.57328
rhand -8.83168 -58.3876
rfingers 7.12502
rthumb 17.1085 632.346
lclavicle 4.26145e-015 1.44119e-014
lhumerus -31.868 1.52175 80.4976
lradius 25.9754
lwrist -2.65807
lhand -22.2013 -14.0438
lfingers 7.12502
lthumb 4.21436 15.8943
rfemur -25.1126 8.13564 17.22
rtibia 14.3352
rfoot -20.4369 -3.33732
rtoes -16.9515
lfemur -23.7134 -10.6076 -23.5997
ltibia 9.3611
lfoot -5.89806 -3.64301
ltoes -21.708
582
root 4.24956 17.9496 16.5962 -155.469 -2.85574 175.046
lowerback -27.2457 -2.80501 -7.82462
upperback 0.962692 -1.40638 -0.434453
thorax 15.8347 -1.35513 3.22923
lowerneck 0.679691 0.110157 -0.763605
upperneck 25.5875 -3.49406 2.80102
head 7.82596 -2.57808 0.690423
rclavicle -2.39784e-015 -7.85199e-015
rhumerus -45.6688 -17.2324 -76.2022
rradius 32.2133
rwrist -3.58925
rhand -8.96462 -58.0571
rfingers 7.12502
rthumb 16.9805 632.665
lclavicle -2.39784e-015 -7.85199e-015
lhumerus -31.6673 1.71075 80.4995
lradius 25.8317
lwrist -2.937
lhand -21.9906 -14.097
lfingers 7.12502
lthumb 4.41781 15.8369
rfemur -24.9131 8.19215 17.2683
rtibia 14.2988
rfoot -20.5183 -3.45287
rtoes -17.4539
lfemur -23.3486 -10.5828 -23.575
ltibia 8.97514
lfoot -5.92701 -3.50903
ltoes -22.9344
